<?xml version="1.0" standalone="no"?>
<!DOCTYPE svg PUBLIC "-//W3C//DTD SVG 20010904//EN"
 "http://www.w3.org/TR/2001/REC-SVG-20010904/DTD/svg10.dtd">
<svg version="1.0" xmlns="http://www.w3.org/2000/svg"
 width="320.000000pt" height="320.000000pt" viewBox="0 0 320.000000 320.000000"
 preserveAspectRatio="xMidYMid meet">
<metadata>
Created by potrace 1.11, written by Peter Selinger 2001-2013
</metadata>
<g transform="translate(0.000000,320.000000) scale(0.100000,-0.100000)"
fill="#000000" stroke="none">
<path d="M375 2772 c-64 -31 -111 -77 -147 -145 -23 -42 -23 -46 -28 -558 l-5
-515 -62 -58 c-43 -40 -73 -79 -95 -124 -31 -62 -33 -73 -33 -172 0 -99 2
-110 33 -172 23 -47 52 -84 97 -126 65 -59 65 -60 65 -114 0 -143 96 -285 240
-356 l55 -27 1106 0 1105 0 68 34 c129 66 215 192 224 331 l5 75 63 58 c44 41
73 78 96 125 31 62 33 73 33 172 0 99 -2 110 -33 172 -22 45 -52 84 -95 124
l-62 58 -5 515 -5 516 -23 45 c-34 66 -79 109 -147 141 -134 65 -274 25 -370
-104 l-50 -67 -20 28 c-42 57 -101 114 -144 140 -41 24 -56 27 -136 27 -102 0
-156 -20 -218 -80 l-35 -34 -42 39 c-114 105 -305 106 -418 2 l-40 -37 -42 37
c-63 56 -138 81 -230 76 -50 -3 -89 -12 -115 -26 -42 -21 -106 -84 -144 -140
l-22 -32 -53 67 c-100 130 -237 168 -371 105z m1310 -225 c22 -23 70 -82 108
-130 37 -48 71 -87 76 -87 5 0 41 52 80 115 40 63 82 121 94 130 28 19 86 19
114 0 12 -8 70 -92 128 -186 59 -93 112 -168 118 -166 6 2 59 79 118 172 59
93 115 175 125 182 10 7 35 13 56 13 51 0 84 -33 93 -91 3 -24 5 -426 3 -894
-3 -948 1 -891 -73 -953 -22 -18 -59 -36 -87 -42 -70 -15 -2009 -14 -2079 1
-68 15 -130 75 -147 141 -9 34 -12 283 -12 903 0 919 -1 898 49 925 30 16 87
12 109 -7 11 -10 68 -93 127 -185 59 -93 110 -168 115 -168 5 0 56 76 115 170
59 93 116 177 128 185 31 21 89 19 120 -5 14 -11 56 -70 93 -130 36 -61 72
-110 78 -109 6 0 43 41 81 92 94 123 125 157 149 168 38 16 79 1 121 -44z"/>
<path d="M815 1381 c-97 -45 -141 -159 -100 -259 69 -163 301 -163 370 0 30
74 10 173 -46 225 -58 53 -152 67 -224 34z"/>
<path d="M1515 1381 c-97 -45 -141 -159 -100 -259 69 -163 301 -163 370 0 30
74 10 173 -46 225 -58 53 -152 67 -224 34z"/>
<path d="M2215 1381 c-97 -45 -141 -159 -100 -259 69 -163 301 -163 370 0 30
74 10 173 -46 225 -58 53 -152 67 -224 34z"/>
</g>
</svg>
